<?xml version="1.0" encoding="utf-8" ?>
<svg xmlns="http://www.w3.org/2000/svg" xmlns:xlink="http://www.w3.org/1999/xlink" width="1024" height="1024">
	<path fill="#202020" d="M655.72 171.707C657.328 171.602 658.94 171.553 660.552 171.561C676.674 171.633 694.535 173.637 706.42 185.676C713.415 192.762 717.911 200.412 721.193 209.798C730.668 236.898 734.269 266.402 740.157 294.432C749.136 337.702 757.415 381.113 764.993 424.649C766.497 433.124 768.381 441.555 769.749 450.048C771.593 461.5 772.937 473.049 774.703 484.517C777.099 500.085 779.785 515.723 781.398 531.395C783.899 555.695 783.512 580.112 783.325 604.507C783.123 630.743 775.418 664.632 762.252 687.441C755.855 698.523 747.655 708.379 738.546 717.32C706.386 748.89 662.266 759.674 619.01 765.158C588.766 768.993 558.412 770.098 527.947 770.076C506.572 770.15 485.196 769.927 463.826 769.407C456.358 769.211 448.996 768.139 441.501 768.057C435.512 767.991 429.702 767.187 423.755 766.641C416.04 765.932 408.317 765.442 400.609 764.627C346.113 758.859 302.245 747.73 262.764 707.31C232.041 671.928 226.16 627.404 226.005 582.298C225.979 574.535 225.749 566.703 226.08 558.951C226.914 539.42 229.412 519.967 232.032 500.616C235.214 477.119 238.755 453.927 242.849 430.572C243.83 424.975 244.046 419.271 245.085 413.681C246.32 407.045 248.153 400.516 249.418 393.877C253.596 371.945 257.242 349.885 261.68 327.997C264.683 313.182 268.271 298.493 271.621 283.754C275.001 268.886 278.31 254.053 281.936 239.241C284.448 228.983 286.804 218.698 290.66 208.837C293.501 201.57 298.739 193.037 304.544 187.769C321.39 172.482 345.377 171.387 367.002 172.333C412.416 174.32 417.258 203.975 420.157 242.547C420.903 252.471 421.192 262.32 421.745 272.244C422.092 278.462 422.908 284.537 422.992 290.792C423.075 296.92 422.981 313.487 427.169 317.615C434.786 325.123 473.654 324.062 484.96 324.164C498.996 324.291 513.262 324.526 527.286 323.916C542.165 323.269 559.054 321.736 571.441 312.609C601.976 290.113 584.142 215.957 612.441 185.549C625.052 171.998 638.315 172.369 655.72 171.707Z"/>
	<path fill="#FAC604" d="M346.068 194.709C346.387 194.671 346.705 194.622 347.024 194.597C358.162 193.728 377.731 193.394 386.287 201.221C390.647 205.21 393.064 211.918 394.375 217.539C397.496 230.91 397.668 246.05 398.461 259.751L401.659 321.231C399.15 320.642 396.287 320.091 394.286 318.35C391.871 316.248 390.745 311.857 390.125 308.78C388.384 300.144 388.138 290.747 387.683 281.964C386.736 263.67 386.637 245.183 385.138 226.937C384.683 221.395 383.967 213.432 379.316 209.717C377.314 208.118 374.824 207.454 372.292 207.882C368.381 208.543 365.463 211.523 363.281 214.639C350.835 232.413 348.737 271.554 352.441 292.385C355.181 307.794 363.609 323.443 376.73 332.405C384.987 338.045 395.105 341.222 404.801 343.272C425.599 347.67 447.42 347.969 468.601 348.122C495.487 348.317 522.647 347.936 549.167 343.039C612.934 331.262 612.456 289.668 618.422 235.79C619.615 225.009 620.809 211.921 627.339 202.904C630.663 198.313 635.909 196.277 641.356 195.504C653.389 193.798 678.228 193.218 687.887 200.764C693.759 205.352 697.28 211.917 699.804 218.79C704.821 232.455 707.596 247.189 710.671 261.395C716.204 287.646 721.326 313.981 726.037 340.392C731.71 370.01 737.212 399.661 742.543 429.342C748.467 463.037 753.402 496.898 757.339 530.882C757.983 535.607 758.376 540.411 758.862 545.158C763.542 590.932 762.603 653.841 731.95 691.116C699.565 730.498 644.575 740.629 596.521 745.066C544.688 749.852 491.924 748.62 440.082 744.747C409.347 742.45 377.838 739.671 348.07 731.336C327.975 725.71 307.926 717.395 291.808 703.887C263.577 680.228 253.066 645.383 249.978 609.904C248.198 589.438 248.613 568.573 250.412 548.124C253.715 510.58 258.904 472.842 264.822 435.622C271.941 390.858 281.349 345.36 291.036 301.053C296.363 276.689 302.094 247.104 310.24 223.81C312.607 217.043 315.569 210.033 320.28 204.53C326.842 196.864 336.637 195.515 346.068 194.709Z"/>
	<path fill="#202020" d="M466.588 528.718C480.668 529.002 494.879 530.866 507.264 538.053C517.831 544.185 524.583 553.685 527.661 565.449C528.923 570.271 529.579 575.278 529.857 580.249C530.8 597.113 530.086 614.309 530.131 631.219C530.163 643.272 531.085 655.68 530.344 667.677C530.212 669.802 530.011 671.762 528.919 673.619C527.74 674.529 526.723 674.929 525.259 675.243C520.664 676.227 499.273 676.076 494.027 675.538C492.771 675.409 491.38 675.035 490.37 674.248C487.72 672.183 487.976 666.34 487.718 663.183C474.656 673.625 461.57 679.364 444.573 678.478C431.305 677.787 420.277 672.993 411.337 663.107C405.487 655.477 402.818 647.298 402.743 637.666C402.653 626.016 406.233 613.657 414.662 605.302C432.279 587.84 463.011 590.146 485.979 590.166C485.605 587.199 485.205 584.123 484.4 581.236C483.108 576.599 480.492 572.817 476.183 570.548C465.645 564.998 447.141 567.641 436.111 570.398C431.661 571.511 427.413 573.29 422.993 574.479C420.766 575.079 418.298 575.479 416.214 574.297C412.797 570.054 412.791 562.805 412.439 557.531C412.111 552.611 410.709 545.028 414.34 541.155C422.854 532.074 454.547 529.242 466.588 528.718Z"/>
	<path fill="#FAC604" d="M474.326 614.214C478.147 613.898 482.053 614.021 485.889 613.999C485.969 621.914 485.907 629.831 485.703 637.744C485.26 638.117 484.819 638.494 484.36 638.847C477.074 644.448 468.631 646.593 459.553 645.523C457.105 644.903 454.526 644.201 452.513 642.609C449.376 640.14 447.386 636.495 447.003 632.521C446.591 628.636 447.595 624.812 450.15 621.816C455.852 615.128 466.257 614.818 474.326 614.214Z"/>
	<path fill="#202020" d="M531.048 368.116C536.382 367.809 552.276 366.688 556.624 369.25C557.364 370.819 557.526 372.34 557.592 374.068C557.857 380.995 557.567 387.997 557.581 394.936L557.737 436.709C557.76 446.243 558.853 473.697 557.042 481.448C556.123 482.605 554.977 482.852 553.581 483.111C549.374 483.892 537.446 484.699 533.992 482.417C532.573 480.576 532.46 478.035 532.084 475.791C525.057 482.656 518.763 484.672 509.032 485.365C505.191 485.199 501.375 484.789 497.726 483.524C490.395 480.982 484.756 475.487 481.433 468.571C475.128 455.449 475.517 435.964 480.424 422.477C483.583 413.797 489.427 406.563 497.931 402.7C507.819 398.209 519.091 398.991 529.016 402.793C529.036 396.579 527.831 375.201 529.389 370.621C529.766 369.513 530.269 368.95 531.048 368.116Z"/>
	<path fill="#FAC604" d="M516.256 420.071C521.008 419.776 524.735 420.946 529.012 422.776C529.025 427.864 530.011 458.699 528.488 461.137C526.778 463.875 522.218 464.23 519.353 464.604C517.389 464.514 515.255 464.375 513.485 463.45C510.375 461.826 508.34 458.454 507.291 455.214C504.731 447.314 504.605 433.38 508.624 425.979C510.478 422.565 512.572 421.097 516.256 420.071Z"/>
	<path fill="#202020" d="M307.98 374.115C320.905 373.622 349.355 372.791 361 374.947C367.194 376.094 373.317 378.194 378.488 381.86C385.807 387.047 389.914 394.588 391.29 403.371C393.06 414.674 391.134 427.248 384.209 436.572C377.267 445.921 367.605 449.161 356.512 450.887C349.499 451.582 342.528 451.508 335.497 451.308C335.455 461.81 336.038 472.34 335.66 482.836C329.634 483.651 310.954 484.666 305.811 482.521C305.801 482.344 305.816 482.164 305.782 481.991C305.71 481.627 305.519 481.294 305.454 480.93C304.452 475.257 305.506 461.399 305.518 454.713C305.46 437.863 305.543 421.012 305.768 404.163C305.89 395.928 305.744 387.548 306.403 379.34C306.572 377.236 306.677 375.816 307.98 374.115Z"/>
	<path fill="#FAC604" d="M335.861 397.684C342.038 397.49 351.361 396.46 356.553 400.412C359.092 402.344 360.3 405.193 360.695 408.295C361.472 414.382 360.177 419.46 356.468 424.289C350.194 429.468 342.967 428.594 335.382 428.456C335.628 418.199 335.51 407.941 335.861 397.684Z"/>
	<path fill="#202020" d="M559.667 546.065C566.535 545.727 597.454 544.714 601.938 547.197C602.623 549.911 602.946 552.648 603.061 555.442C603.396 563.602 603.063 571.901 603.031 580.072L602.886 628.355L602.899 656.37C602.902 660.985 603.409 666.425 602.562 670.946C602.178 672.993 601.106 673.727 599.512 674.836C599.033 674.877 598.555 674.925 598.075 674.95C591.668 675.29 585.114 675.035 578.692 675.045C573.607 675.054 568.111 675.481 563.07 674.836C560.968 674.567 558.911 674.147 557.299 672.699C556.643 670.939 556.403 669.311 556.347 667.431C556.104 659.323 556.42 651.086 556.425 642.962L556.459 589.117C556.471 581.133 556.442 573.148 556.372 565.164C556.338 560.241 555.871 554.681 556.689 549.832C557.016 547.892 558.114 547.098 559.667 546.065Z"/>
	<path fill="#202020" d="M617.712 400.675C623.366 400.68 629.147 400.488 634.789 400.802C636.469 400.896 639.435 401.032 640.755 402.222C645.786 406.759 637.403 451.713 645.309 459.955C647.013 461.732 649.278 462.451 651.698 462.476C656.926 462.528 660.455 460.607 664.118 457.043C665.187 446.935 662.547 407.751 665.927 401.948C667.724 401.059 669.607 400.945 671.582 400.9C674.603 400.832 689.809 400.025 691.595 402.272C694.175 405.519 692.941 431.402 692.938 436.75C692.885 445.379 692.875 454.009 692.91 462.639C692.96 468.645 693.737 475.627 692.55 481.487C691.795 482.374 691.491 482.41 690.399 482.709C686.833 483.686 671.503 484.433 668.633 482.462C667.075 481.392 666.557 476.424 666.193 474.618C663.476 477.204 660.636 479.608 657.356 481.456C649.399 485.939 638.907 486.827 630.183 484.214C624.433 482.492 619.963 478.849 617.275 473.462C615.445 469.795 614.549 465.741 614.076 461.693C613.183 454.034 612.71 407.397 614.397 402.503C615.407 401.277 616.252 401.073 617.712 400.675Z"/>
	<path fill="#202020" d="M432.365 399.719C441.614 399.257 451.176 401.671 458.376 407.658C465.465 413.553 469.237 422.259 470.055 431.329C470.501 436.281 470.789 445.017 467.227 448.858C466.283 449.875 465.14 450.328 463.817 450.621C459.272 451.627 453.743 451.272 449.082 451.389L423.581 452.003C424.506 456.106 425.466 459.537 429.003 462.208C437.6 468.7 452.575 462.921 462.17 462.11C463.724 461.979 465.298 462.064 466.466 463.214C468.052 464.776 467.518 469.995 467.521 472.148L467.449 479.595C460.487 483.754 451.541 484.919 443.592 485.51C431.422 486.414 417.884 485.014 408.333 476.641C400.228 469.536 396.615 458.517 395.983 448.019C395.211 435.22 397.078 421.258 405.916 411.331C412.984 403.393 422.007 400.302 432.365 399.719Z"/>
	<path fill="#FAC604" d="M431.473 419.057C434.873 418.867 438.483 418.698 441.22 421.1C444.486 423.968 444.593 428.941 444.98 432.944C442.41 433.047 439.835 433.242 437.268 433.394C432.603 433.531 427.94 433.705 423.279 433.916C423.555 431.801 423.825 429.582 424.39 427.526C425.535 423.366 427.756 421.06 431.473 419.057Z"/>
	<path fill="#202020" d="M672.518 211.011C673.692 210.889 674.795 210.788 675.969 210.962C679.517 211.489 682.201 213.901 684.169 216.771C687.099 221.045 688.629 226.516 689.951 231.464C693.783 245.811 712.091 339.594 710.298 348.023C710.087 349.015 709.805 348.956 709.026 349.511C705.96 349.969 703.342 348.64 700.564 347.518C688.417 341.306 679.216 331.551 672.247 319.902C668.167 313.082 665.396 306.043 663.651 298.297C659.62 280.4 659.158 241.631 663.679 224.164C665.144 218.503 667.342 214.021 672.518 211.011Z"/>
	<path fill="#202020" d="M573.587 400.568C579.184 400.386 594.894 399.087 598.803 402.119C599.83 407.376 600.412 477.051 599.349 480.475C598.919 481.862 598.041 482.383 596.9 483.127C596.097 483.199 595.305 483.266 594.499 483.297C589.953 483.471 575.348 484.94 571.985 481.879C570.685 474.646 571.031 467.237 571.012 459.918L570.966 431.928C570.958 422.897 570.198 413.179 571.093 404.257C571.293 402.258 572.122 401.721 573.587 400.568Z"/>
	<path fill="#202020" d="M698.033 594.732C704.866 594.743 730.426 593.133 734.797 597.179C736.437 598.697 737.135 601.056 737.221 603.228C737.333 606.036 736.664 609.19 734.562 611.2C733.041 612.654 731.081 613.217 729.045 613.507C722.825 614.394 716.048 613.797 709.772 613.694L672.593 612.946C665.971 612.591 638.3 613.293 634.557 610.071C632.769 608.532 632.102 606.445 631.962 604.144C631.838 602.122 631.982 600.368 633.478 598.836C635.045 597.233 637.371 596.475 639.53 596.119C646.101 595.035 653.704 595.623 660.397 595.51C672.941 595.181 685.486 594.922 698.033 594.732Z"/>
	<path fill="#202020" d="M283.28 594.644C295.336 594.319 370.999 594.154 375.917 597.313C377.767 598.501 378.863 600.616 379.17 602.751C379.445 604.669 379.099 606.869 377.897 608.434C375.874 611.069 373.232 611.46 370.144 611.896C356.422 611.992 285.506 615.889 279.021 612.268C276.732 610.99 275.4 608.251 274.931 605.771C274.42 603.063 274.828 600.466 276.387 598.174C278.145 595.589 280.343 595.137 283.28 594.644Z"/>
	<path fill="#202020" d="M292.222 531.606C298.668 531.89 313.071 538.73 319.944 541.285C338.105 548.038 356.625 554.002 374.243 562.133C377.278 563.534 380.485 565.11 381.587 568.537C382.171 570.356 381.796 572.336 380.834 573.956C379.066 576.932 376.664 577.961 373.423 578.724C363.892 577.439 350.166 570.97 340.695 567.693C328.682 563.536 316.598 559.622 304.644 555.291C299.36 553.377 293.723 551.619 288.695 549.1C286.247 547.873 284.447 546.354 283.663 543.621C282.964 541.189 283.428 538.429 284.719 536.272C286.402 533.461 289.178 532.347 292.222 531.606Z"/>
	<path fill="#202020" d="M717.44 532.087C719.005 532.041 720.731 532.397 722.172 533.008C724.683 534.073 726.751 536.05 727.739 538.614C728.591 540.77 728.49 543.185 727.462 545.262C726.546 547.075 725.203 548.211 723.446 549.156C714.695 553.867 697.723 558.899 687.758 562.239C672.171 567.444 656.642 572.821 641.174 578.369C639.288 578.55 637.1 578.843 635.321 578.045C633.101 577.049 630.829 575.084 630.007 572.741C629.434 571.109 629.633 569.421 630.432 567.903C631.771 565.362 634.44 563.666 636.918 562.389C652.705 554.256 675.188 547.665 692.267 541.597C700.693 538.604 708.856 534.547 717.44 532.087Z"/>
	<path fill="#202020" d="M373.889 629.616C375.595 629.681 377.28 630.032 378.779 630.891C380.772 632.029 382.158 633.992 382.564 636.251C382.978 638.433 382.533 640.82 381.169 642.599C379.734 644.471 377.012 645.628 374.919 646.631C358.459 654.518 341.051 660.592 324.132 667.407C317.471 670.09 306.855 675.657 300.149 676.81C298.598 676.382 297.109 675.864 295.749 674.977C293.492 673.506 291.564 670.952 291.014 668.292C290.539 665.994 291.087 663.784 292.456 661.897C293.598 660.323 295.194 659.052 296.918 658.17C302.434 655.349 308.499 653.334 314.295 651.145L343.937 640.166C352.592 636.974 365.347 631.085 373.889 629.616Z"/>
	<path fill="#202020" d="M635.999 629.52C636.986 629.489 637.928 629.481 638.903 629.66C645.819 630.927 655.71 635.548 662.57 638.04C679.168 644.069 697.743 649.402 713.447 657.42C715.776 658.609 718.069 659.859 719.468 662.155C720.662 664.114 720.958 666.313 720.273 668.507C719.177 672.016 716.688 674.01 713.589 675.703C712.014 675.976 710.632 676.121 709.056 675.743C702.34 674.134 690.306 667.812 683.462 665.005C671.899 660.262 660.165 656.015 648.652 651.109C644.555 649.364 640.194 647.77 636.304 645.611C633.986 644.325 631.765 642.685 630.411 640.35C629.536 638.841 629.074 637.125 629.636 635.423C630.552 632.65 633.496 630.692 635.999 629.52Z"/>
	<path fill="#202020" d="M605.836 499.624C606.261 499.611 606.687 499.605 607.112 499.606C610.967 499.635 615.608 501.299 618.279 504.165C620.069 506.085 620.93 508.594 620.74 511.204C620.283 517.479 614.637 524.364 610.038 528.354C599.63 537.384 586.346 538.555 573.124 537.643C570.493 537.481 567.569 537.352 565.034 536.63C562.514 535.911 560.135 534.542 558.904 532.142C558.014 530.408 557.365 526.954 558.283 525.12C558.588 524.511 559.13 524.005 559.712 523.666C563.749 521.316 569.442 520.5 573.941 519.241C578.366 518.003 582.895 516.278 586.993 514.197C594.204 510.537 598.695 502.828 605.836 499.624Z"/>
	<path fill="#202020" d="M582.093 364.458C589.912 362.771 597.639 367.663 599.46 375.451C601.281 383.239 596.523 391.05 588.767 393.004C583.63 394.298 578.195 392.721 574.549 388.877C570.903 385.034 569.615 379.522 571.178 374.461C572.742 369.399 576.915 365.575 582.093 364.458Z"/>
</svg>
